<svg xmlns="http://www.w3.org/2000/svg" version="1.0" width="761.000000pt" height="875.000000pt" viewBox="0 0 761.000000 875.000000" preserveAspectRatio="xMidYMid meet">

<g transform="translate(0.000000,875.000000) scale(0.100000,-0.100000)" fill="#fff0ff" stroke="none">
<path d="M4801 7880 c-54 -48 -70 -78 -92 -170 -5 -24 -13 -47 -17 -50 -4 -3 -13 -21 -19 -40 -6 -19 -28 -80 -48 -135 -20 -55 -41 -111 -45 -125 -5 -14 -18 -50 -30 -80 -12 -30 -32 -85 -45 -122 -13 -36 -30 -81 -37 -100 -26 -59 -51 -132 -51 -150 -1 -10 -4 -18 -7 -18 -3 0 -12 -16 -19 -35 -14 -39 -26 -44 -41 -16 -5 11 -16 25 -22 33 -7 7 -26 31 -43 53 -16 21 -36 48 -45 58 -28 35 -195 201 -259 257 -34 30 -72 64 -84 75 -39 36 -105 85 -113 85 -5 0 -36 20 -69 45 -99 73 -110 80 -117 78 -3 -1 -12 4 -18 12 -7 8 -18 15 -25 15 -7 0 -24 9 -39 21 -14 11 -26 18 -26 14 0 -3 -21 6 -47 20 -27 14 -53 25 -59 25 -6 0 -17 7 -24 15 -9 11 -94 42 -135 49 -5 1 -15 5 -21 8 -6 4 -21 9 -35 12 -13 3 -49 12 -79 20 -30 8 -71 17 -90 20 -19 2 -46 7 -60 9 -58 12 -153 19 -273 22 -107 3 -128 1 -123 -10 4 -11 0 -12 -20 -4 -26 9 -84 9 -84 -1 0 -3 -21 -6 -48 -8 -26 -1 -69 -10 -97 -19 -27 -9 -54 -17 -60 -18 -5 -1 -32 -11 -58 -23 -27 -12 -52 -22 -56 -22 -4 0 -28 -13 -54 -30 -26 -16 -47 -27 -47 -24 0 3 -17 -8 -37 -23 -20 -15 -37 -26 -39 -23 -1 3 -16 -7 -33 -22 -17 -16 -36 -28 -42 -28 -5 0 -7 -5 -3 -12 4 -6 3 -8 -4 -4 -13 8 -44 -18 -178 -154 -57 -58 -107 -114 -111 -125 -3 -11 -14 -26 -24 -33 -11 -7 -19 -19 -19 -26 0 -8 -7 -17 -16 -20 -9 -3 -14 -12 -11 -19 3 -8 -3 -19 -14 -25 -10 -7 -16 -18 -13 -26 3 -7 -2 -16 -10 -19 -9 -4 -16 -15 -16 -26 0 -11 -5 -23 -10 -26 -5 -3 -10 -17 -10 -30 0 -13 -5 -27 -10 -30 -6 -4 -8 -11 -5 -16 4 -5 2 -9 -2 -9 -10 0 -31 -85 -38 -155 -10 -97 -14 -178 -9 -186 2 -4 6 -45 8 -91 2 -46 9 -96 16 -113 12 -31 13 -34 30 -102 14 -58 96 -227 117 -242 5 -3 20 -24 33 -46 14 -22 34 -50 45 -63 11 -12 28 -32 38 -42 9 -11 14 -20 10 -20 -4 0 3 -8 15 -17 12 -10 60 -54 105 -98 45 -44 85 -79 90 -77 14 4 7 -23 -13 -43 -109 -113 -149 -159 -144 -166 3 -5 0 -8 -7 -7 -7 2 -18 -7 -24 -19 -5 -13 -13 -23 -17 -23 -4 0 -22 -21 -39 -47 -18 -27 -35 -50 -39 -53 -16 -14 -40 -62 -35 -71 4 -5 2 -8 -3 -7 -15 5 -72 -72 -76 -104 -1 -3 -12 -19 -26 -35 -26 -29 -69 -110 -70 -129 0 -7 -15 -35 -34 -62 -19 -28 -42 -73 -51 -99 -9 -26 -21 -55 -26 -63 -18 -30 -33 -65 -35 -86 -1 -11 -16 -50 -33 -86 -17 -36 -31 -72 -31 -80 0 -9 -8 -33 -17 -54 -9 -22 -18 -49 -19 -61 -2 -12 -10 -43 -19 -69 -9 -26 -18 -59 -20 -73 -9 -50 -24 -127 -39 -196 -10 -47 -11 -72 -4 -76 7 -4 7 -9 -1 -13 -6 -4 -10 -24 -9 -45 0 -21 -2 -42 -5 -48 -31 -50 -24 -645 10 -748 3 -11 7 -31 8 -45 2 -14 10 -65 20 -115 9 -49 20 -108 24 -130 8 -44 28 -110 42 -137 5 -10 11 -34 14 -54 2 -20 11 -47 20 -60 8 -13 15 -32 15 -44 0 -11 4 -20 9 -20 5 0 9 -14 9 -31 -1 -19 6 -37 15 -44 10 -7 17 -21 17 -31 0 -11 6 -28 13 -39 7 -11 19 -38 26 -60 8 -22 22 -52 32 -67 11 -14 19 -33 19 -41 0 -9 6 -22 14 -29 7 -8 16 -28 20 -44 4 -16 20 -45 36 -64 17 -19 39 -52 49 -72 10 -21 21 -35 25 -31 3 3 6 -2 6 -13 0 -10 16 -42 35 -69 19 -28 41 -59 48 -69 6 -10 21 -31 33 -45 11 -14 25 -33 30 -43 5 -9 26 -34 46 -57 21 -22 38 -44 38 -48 1 -12 37 -53 48 -53 5 0 17 -16 27 -35 11 -19 21 -33 23 -31 2 3 25 -19 50 -47 67 -72 95 -99 217 -205 105 -91 267 -212 285 -212 6 0 10 -5 10 -11 0 -5 13 -15 30 -20 17 -6 30 -15 30 -20 0 -5 9 -9 20 -9 11 0 20 -4 20 -10 0 -5 7 -10 15 -10 8 0 15 -4 15 -10 0 -5 5 -10 11 -10 6 0 25 -11 43 -25 18 -14 38 -25 45 -25 7 0 47 -18 89 -40 100 -51 272 -130 272 -124 0 2 14 -2 30 -11 17 -9 30 -13 30 -10 0 5 61 -16 115 -40 17 -8 53 -19 80 -25 28 -7 57 -15 65 -18 8 -3 22 -6 30 -7 8 0 32 -7 53 -14 20 -7 43 -11 50 -8 6 2 26 -1 42 -8 17 -6 42 -11 58 -11 15 1 27 -1 27 -5 0 -3 6 -6 13 -6 6 -1 39 -4 72 -7 33 -4 86 -9 117 -11 32 -2 61 -6 66 -9 4 -2 32 -4 62 -4 30 0 123 -1 205 -1 83 -1 161 1 175 4 14 3 52 6 85 6 33 1 71 6 85 11 13 5 54 11 90 13 36 2 90 11 120 20 30 9 69 18 85 21 17 3 41 9 55 14 14 5 39 11 55 14 60 9 186 47 217 65 18 10 67 28 108 41 41 12 80 26 86 31 6 5 15 5 19 1 5 -4 5 -1 1 6 -4 7 -1 12 9 12 10 0 13 5 9 12 -5 7 -3 8 6 3 12 -7 151 52 158 68 2 4 8 7 13 7 34 0 159 75 187 112 7 10 21 18 31 18 9 0 38 13 64 30 26 16 51 30 54 30 4 0 16 9 28 19 11 11 36 34 55 52 19 19 39 32 43 31 4 -1 10 5 13 13 4 8 10 15 16 15 15 0 97 73 92 82 -3 4 1 5 8 3 8 -3 29 11 48 30 41 42 48 49 95 92 19 17 35 37 35 43 0 6 3 9 8 7 4 -2 15 4 25 15 9 10 15 18 14 18 -2 0 16 21 40 46 23 25 43 50 43 54 0 5 8 11 18 14 9 3 29 25 44 48 15 24 39 55 53 70 14 15 25 32 25 38 0 5 4 10 10 10 5 0 6 7 3 17 -4 11 -3 14 5 9 7 -4 12 -2 12 3 0 6 16 27 35 48 19 20 32 40 29 45 -3 4 0 13 5 20 35 42 80 108 74 108 -3 0 3 10 14 22 11 13 36 52 55 88 34 65 39 106 12 96 -8 -3 -14 0 -14 7 0 8 -4 6 -10 -3 -5 -8 -10 -10 -10 -4 0 6 -13 11 -30 10 -16 -1 -30 -5 -30 -9 0 -5 -4 -5 -10 -2 -5 3 -37 -8 -70 -26 -53 -28 -64 -40 -102 -108 -24 -42 -45 -80 -47 -86 -2 -5 -8 -14 -13 -20 -8 -10 -66 -87 -128 -172 -19 -27 -39 -53 -45 -59 -86 -99 -122 -138 -185 -202 -41 -42 -74 -80 -72 -86 2 -6 0 -8 -4 -4 -4 4 -28 -11 -54 -35 -134 -121 -202 -176 -270 -215 -25 -14 -79 -49 -120 -78 -41 -28 -97 -62 -125 -74 -27 -12 -61 -28 -75 -36 -14 -8 -63 -33 -110 -55 -47 -21 -92 -43 -100 -48 -9 -5 -31 -12 -50 -16 -19 -4 -44 -14 -54 -21 -18 -12 -43 -20 -186 -61 -30 -9 -73 -22 -95 -29 -23 -8 -53 -14 -67 -14 -15 0 -33 -7 -41 -15 -8 -8 -17 -11 -21 -8 -5 5 -86 -3 -216 -23 -145 -21 -553 -28 -630 -10 -14 3 -45 8 -70 11 -94 11 -282 49 -375 74 -22 6 -58 16 -80 22 -22 6 -49 15 -60 20 -68 28 -100 39 -116 39 -10 0 -51 15 -91 34 -40 19 -98 45 -128 57 -30 13 -58 28 -62 34 -4 5 -8 6 -8 2 0 -5 -12 0 -27 10 -16 11 -39 24 -53 31 -25 12 -41 21 -90 53 -14 9 -47 29 -75 44 -27 15 -70 44 -95 64 -25 20 -76 59 -115 86 -85 59 -76 51 -260 232 -171 168 -261 270 -320 364 -5 9 -37 56 -70 105 -33 49 -67 106 -77 127 -9 20 -22 37 -28 37 -5 0 -9 3 -8 8 1 4 -25 63 -58 132 -34 69 -74 159 -89 200 -16 41 -32 80 -36 85 -4 6 -10 26 -14 45 -4 19 -13 47 -21 61 -7 14 -14 38 -16 52 -2 14 -7 29 -11 33 -4 4 -7 17 -7 29 0 12 -3 25 -7 29 -8 7 -11 23 -19 81 -3 22 -9 49 -14 60 -8 18 -31 155 -46 280 -3 28 -7 142 -9 255 -3 212 11 400 38 530 9 41 19 91 22 110 3 19 10 49 14 67 5 17 6 34 3 37 -3 3 0 6 6 6 7 0 11 3 10 8 -5 15 72 268 92 304 6 10 10 23 10 30 0 6 17 48 38 92 22 45 49 101 60 126 36 75 85 160 142 249 30 47 54 89 53 93 -2 4 1 8 6 8 4 0 27 27 50 59 41 59 141 178 231 277 39 43 51 51 73 47 15 -3 27 -10 27 -15 0 -5 5 -6 11 -3 5 4 18 1 27 -7 15 -13 52 -30 117 -54 11 -4 24 -6 29 -5 4 1 19 -5 32 -14 13 -9 43 -18 67 -21 23 -4 49 -12 57 -19 9 -8 47 -19 85 -25 92 -16 89 -15 100 -21 12 -7 79 -22 115 -25 14 -1 39 -4 55 -8 17 -3 62 -12 100 -20 39 -8 96 -17 128 -20 32 -3 62 -8 68 -11 5 -4 33 -8 61 -11 92 -8 131 -12 208 -23 41 -6 113 -16 160 -21 78 -10 115 -14 195 -26 48 -8 97 -14 138 -19 20 -2 42 -7 49 -11 13 -8 52 -15 91 -15 15 0 27 -4 27 -9 0 -5 6 -7 14 -4 8 3 23 1 34 -5 11 -6 35 -12 54 -15 19 -2 57 -12 84 -21 27 -10 65 -19 84 -22 19 -2 39 -8 45 -13 7 -5 20 -11 31 -13 17 -4 48 -15 94 -34 8 -3 21 -5 28 -4 8 1 26 -6 40 -15 15 -10 32 -19 38 -20 6 -1 29 -13 52 -27 22 -15 53 -29 69 -33 15 -4 55 -25 88 -48 33 -23 73 -48 88 -56 15 -7 43 -29 62 -47 19 -18 38 -33 43 -33 12 0 142 -140 142 -153 0 -5 10 -19 23 -31 13 -12 30 -36 38 -54 7 -18 17 -32 21 -32 5 0 8 -13 8 -29 0 -16 5 -31 11 -33 11 -4 34 -78 50 -163 6 -27 13 -57 16 -65 23 -60 16 -356 -9 -387 -6 -7 -8 -13 -5 -13 11 0 -44 -135 -63 -155 -11 -12 -20 -24 -20 -28 0 -4 -8 -15 -17 -26 -10 -10 -29 -34 -43 -52 -14 -19 -47 -54 -75 -79 -27 -25 -62 -57 -78 -72 -16 -16 -32 -28 -35 -28 -4 0 -38 -22 -75 -49 -37 -27 -88 -59 -112 -71 -25 -12 -47 -25 -49 -29 -3 -4 -24 -14 -48 -21 -24 -7 -47 -17 -53 -20 -9 -7 -83 -33 -95 -35 -3 0 -25 -8 -50 -17 -25 -9 -61 -19 -80 -22 -19 -3 -46 -7 -59 -10 -121 -27 -305 -6 -404 44 -79 41 -235 164 -302 239 -16 19 -35 39 -40 45 -6 6 -26 36 -45 66 -38 61 -59 85 -66 78 -43 -44 95 -244 274 -397 180 -154 299 -202 506 -205 99 -2 139 3 245 27 69 16 151 38 181 49 30 11 71 24 90 30 19 5 42 16 50 23 8 7 35 21 60 32 49 21 227 135 273 174 87 74 124 112 178 182 101 131 165 295 180 458 11 134 0 347 -20 374 -4 6 -13 37 -20 70 -15 73 -109 264 -162 331 -21 27 -49 65 -62 84 -28 40 -133 140 -147 140 -6 0 -10 4 -10 8 0 5 -18 21 -40 38 -23 16 -50 37 -62 47 -12 9 -25 17 -29 17 -11 0 -103 62 -107 72 -2 4 -8 8 -14 8 -6 0 -36 12 -67 27 -31 15 -58 27 -61 28 -3 1 -28 13 -55 27 -28 14 -84 36 -125 48 -41 13 -80 26 -85 31 -6 4 -22 10 -36 12 -13 3 -42 12 -63 21 -21 9 -49 16 -63 16 -13 0 -34 5 -45 11 -11 6 -30 12 -42 14 -11 2 -73 14 -136 28 -114 26 -355 64 -460 73 -30 3 -84 10 -120 15 -36 6 -103 14 -150 20 -99 11 -121 14 -174 24 -22 4 -47 9 -55 10 -9 0 -38 5 -66 9 -27 4 -61 9 -75 11 -14 2 -61 11 -105 21 -44 9 -89 18 -100 19 -41 4 -222 48 -290 70 -38 13 -87 26 -107 30 -21 3 -38 10 -38 15 0 5 -16 12 -35 16 -45 8 -44 25 3 60 20 15 47 37 59 48 32 32 51 46 60 46 4 0 31 17 58 38 79 59 157 109 198 128 20 10 37 21 37 26 0 4 9 8 19 8 11 0 23 5 26 10 3 6 27 20 53 31 90 41 217 100 244 115 14 7 33 14 41 14 8 0 72 18 143 40 71 22 152 47 179 55 65 19 244 53 315 59 30 3 107 10 170 17 104 10 471 6 490 -6 7 -5 130 -18 177 -19 18 -1 33 -4 33 -7 0 -7 12 -9 130 -27 36 -6 114 -26 175 -46 60 -20 115 -34 123 -31 7 2 11 1 8 -4 -3 -5 6 -12 22 -16 58 -14 253 -95 369 -153 143 -72 309 -173 412 -251 41 -31 86 -65 102 -76 63 -46 151 -125 251 -227 98 -99 107 -106 114 -86 4 13 6 42 5 64 -1 40 -8 49 -139 180 -76 77 -161 158 -188 181 -27 24 -56 49 -64 56 -8 8 -23 17 -32 20 -10 4 -18 11 -18 17 0 5 -5 10 -10 10 -6 0 -39 21 -73 48 -87 66 -125 92 -133 92 -4 0 -22 11 -40 25 -18 14 -37 25 -43 25 -6 0 -20 8 -30 17 -20 17 -20 17 0 31 24 17 44 61 106 232 24 69 60 164 79 213 19 48 34 95 34 104 0 9 9 35 19 57 39 84 61 139 61 155 0 9 8 30 18 46 9 17 26 57 36 90 10 33 22 69 27 80 5 11 15 38 23 60 7 22 23 65 34 96 12 31 23 67 26 81 2 14 18 53 36 87 17 35 27 60 21 57 -5 -4 -11 6 -13 21 l-3 28 -90 -1 -91 -1 -69 -46 c-39 -26 -75 -51 -81 -56 -6 -5 -36 -24 -65 -41 -50 -29 -110 -69 -134 -88 -40 -32 -86 -63 -117 -81 -83 -46 -110 -62 -134 -77 -22 -15 -24 -15 -24 0 0 9 -11 38 -25 64 -14 26 -25 53 -25 59 0 7 -5 13 -11 13 -6 0 -9 5 -7 12 3 7 -15 50 -39 97 -24 47 -43 89 -43 93 0 11 -50 121 -101 221 -22 43 -37 82 -35 86 3 4 -7 20 -22 34 l-27 26 -54 -49z m53 -302 c19 -35 42 -88 52 -118 9 -30 23 -62 30 -71 8 -8 14 -21 14 -28 0 -7 7 -29 16 -49 21 -48 28 -67 49 -124 9 -26 21 -50 26 -53 5 -4 9 -15 9 -25 0 -16 13 -49 46 -118 3 -6 44 -10 44 -4 0 4 14 8 31 8 19 1 36 8 41 18 6 10 30 26 55 37 24 10 42 23 39 27 -3 5 0 9 7 9 11 0 54 28 194 127 34 24 71 47 82 51 12 3 21 10 21 14 0 4 18 16 40 27 22 10 40 22 40 26 0 4 9 12 20 18 19 10 20 9 11 -7 -5 -10 -22 -49 -37 -88 -14 -38 -29 -74 -32 -80 -4 -5 -7 -13 -8 -17 -1 -5 -2 -9 -4 -10 -1 -2 -3 -10 -5 -18 -6 -27 -30 -85 -37 -90 -3 -3 -14 -32 -23 -65 -10 -33 -23 -69 -30 -80 -10 -16 -20 -45 -30 -85 0 -3 -6 -15 -13 -26 -6 -12 -9 -24 -5 -27 3 -4 -6 -30 -20 -59 -23 -49 -39 -86 -41 -98 -3 -12 -29 -77 -41 -100 -7 -14 -20 -50 -29 -80 -25 -81 -58 -140 -78 -140 -10 0 -18 3 -18 8 0 7 -22 18 -100 48 -25 10 -54 23 -65 30 -16 10 -86 36 -105 39 -20 3 -87 29 -94 36 -6 5 -26 9 -46 9 -20 0 -40 4 -46 9 -15 14 -262 69 -319 70 -58 2 -59 10 -17 117 75 187 91 229 111 289 11 33 29 87 41 120 12 32 32 100 45 150 25 94 136 435 142 435 1 0 18 -28 37 -62z m-2034 7 c76 -5 232 -31 274 -45 15 -5 32 -7 36 -5 5 3 11 1 14 -4 3 -5 18 -12 33 -16 31 -7 80 -28 133 -55 19 -10 54 -24 78 -31 23 -7 42 -15 42 -19 0 -3 18 -14 40 -24 22 -10 40 -22 40 -27 0 -5 5 -9 11 -9 18 0 208 -129 279 -189 199 -170 237 -206 315 -296 32 -39 65 -77 72 -85 38 -43 75 -98 100 -146 32 -64 24 -82 -34 -75 -93 10 -496 5 -517 -7 -5 -3 -23 -7 -40 -8 -17 -2 -62 -5 -100 -9 -38 -3 -74 -9 -80 -13 -6 -3 -20 -7 -31 -8 -42 -3 -107 -14 -117 -20 -5 -4 -27 -9 -47 -11 -20 -3 -47 -11 -61 -18 -14 -7 -30 -10 -37 -8 -6 2 -26 -3 -43 -12 -17 -9 -35 -13 -40 -10 -5 3 -11 1 -14 -4 -3 -5 -22 -12 -42 -16 -37 -7 -44 -9 -102 -38 -19 -9 -40 -17 -47 -17 -23 0 -65 -22 -59 -31 3 -5 -2 -9 -12 -9 -9 0 -33 -10 -52 -22 -20 -12 -32 -17 -28 -10 5 8 2 10 -8 6 -9 -3 -16 -9 -16 -13 0 -4 -29 -18 -65 -30 -36 -13 -65 -27 -65 -31 0 -4 -8 -10 -17 -13 -10 -3 -40 -20 -68 -36 -27 -17 -61 -35 -74 -41 -13 -6 -39 -24 -58 -40 -19 -17 -40 -30 -49 -30 -8 0 -17 -7 -20 -15 -4 -8 -12 -15 -19 -15 -7 0 -18 -7 -26 -16 -7 -8 -29 -24 -48 -34 -20 -10 -61 -41 -91 -69 -30 -28 -58 -51 -61 -51 -3 0 -16 -9 -29 -20 -29 -25 -32 -25 -68 5 -17 14 -33 25 -38 25 -10 0 -204 198 -204 209 0 5 -16 28 -35 51 -19 23 -35 46 -35 52 0 5 -11 24 -24 41 -14 18 -25 37 -27 42 -1 6 -3 15 -5 20 -1 6 -8 28 -14 50 -6 22 -18 65 -26 95 -21 75 -25 109 -26 225 -1 113 13 192 48 271 13 30 23 57 23 60 0 4 3 10 8 13 4 3 34 44 65 91 72 107 112 150 213 231 104 84 124 97 227 153 196 105 364 133 668 111z" fill="#fff0ff"/>
</g>
</svg>